<?xml version="1.0" encoding="utf-8"?>
<!-- Generator: Adobe Illustrator 24.2.1, SVG Export Plug-In . SVG Version: 6.00 Build 0)  -->
<svg version="1.2" baseProfile="tiny" id="Layer_1" xmlns="http://www.w3.org/2000/svg" xmlns:xlink="http://www.w3.org/1999/xlink"
	 x="0px" y="0px" viewBox="0 0 200 35" overflow="visible" xml:space="preserve">
<g>
	<g>
		<image width="93" height="93" xlink:href="FFF188E4.png"  transform="matrix(1 0 0 1 -36 -29)">
		</image>
	</g>
	<g>
		<image width="87" height="87" xlink:href="FFF188EC.png"  transform="matrix(1 0 0 1 -14 -26)">
		</image>
	</g>
	<g>
		<path d="M76.9,7l-5.5,21.1h-6.2l-3.4-13.9l-3.5,13.9h-6.2L46.8,7h5.5l3,15.3L59.1,7h5.6l3.6,15.3L71.4,7H76.9z"/>
		<path d="M84.6,11.1v4.3h6.9v4h-6.9V24h7.8v4.1H79.5V7h12.9v4.1H84.6z"/>
		<path d="M96.2,11.9c0.9-1.6,2.2-2.9,3.8-3.8c1.6-0.9,3.4-1.4,5.5-1.4c2.5,0,4.6,0.7,6.4,2c1.8,1.3,3,3.1,3.6,5.4h-5.6
			c-0.4-0.9-1-1.5-1.8-2c-0.8-0.5-1.6-0.7-2.6-0.7c-1.6,0-2.9,0.6-3.8,1.6c-1,1.1-1.5,2.6-1.5,4.4c0,1.8,0.5,3.3,1.5,4.4
			c1,1.1,2.3,1.6,3.8,1.6c1,0,1.9-0.2,2.6-0.7c0.8-0.5,1.4-1.1,1.8-2h5.6c-0.6,2.3-1.8,4.1-3.6,5.4c-1.8,1.3-3.9,2-6.4,2
			c-2,0-3.9-0.5-5.5-1.4c-1.6-0.9-2.9-2.2-3.8-3.8c-0.9-1.6-1.3-3.5-1.3-5.6C94.9,15.4,95.3,13.6,96.2,11.9z"/>
		<path d="M123.1,26.9c-1.6-0.9-3-2.2-3.9-3.9s-1.5-3.5-1.5-5.6s0.5-3.9,1.5-5.6c1-1.6,2.3-2.9,3.9-3.8s3.5-1.4,5.4-1.4
			c2,0,3.8,0.5,5.4,1.4s2.9,2.2,3.9,3.8c0.9,1.6,1.4,3.5,1.4,5.6s-0.5,3.9-1.4,5.6s-2.3,2.9-3.9,3.9c-1.6,0.9-3.5,1.4-5.4,1.4
			C126.6,28.3,124.8,27.8,123.1,26.9z M132.6,21.9c1-1.1,1.5-2.6,1.5-4.4c0-1.9-0.5-3.3-1.5-4.5c-1-1.1-2.4-1.7-4-1.7
			c-1.7,0-3.1,0.6-4.1,1.6c-1,1.1-1.5,2.6-1.5,4.5c0,1.9,0.5,3.3,1.5,4.5c1,1.1,2.4,1.7,4.1,1.7C130.2,23.6,131.6,23,132.6,21.9z"/>
		<path d="M155.9,8.3c1.7,0.9,2.9,2.1,3.9,3.7c0.9,1.6,1.4,3.4,1.4,5.5c0,2.1-0.5,3.9-1.4,5.5c-0.9,1.6-2.2,2.8-3.9,3.7
			c-1.7,0.9-3.6,1.3-5.8,1.3h-7.9V7h7.9C152.3,7,154.2,7.5,155.9,8.3z M154.3,22c1.1-1.1,1.6-2.6,1.6-4.5s-0.5-3.5-1.6-4.5
			c-1.1-1.1-2.6-1.6-4.5-1.6h-2.4v12.2h2.4C151.7,23.6,153.2,23.1,154.3,22z"/>
		<path d="M169.1,11.1v4.3h6.9v4h-6.9V24h7.8v4.1H164V7h12.9v4.1H169.1z"/>
		<path d="M199.1,28.1h-5.1l-8.6-13v13h-5.1V7h5.1l8.6,13.1V7h5.1V28.1z"/>
	</g>
	<path d="M20.6,27.9H10.5L0.9,17.5l9.6-10.4h10.1L11,17.5L20.6,27.9z"/>
	<path d="M23.9,11.2H30l5.8,6.3L30,23.8h-6.1l5.8-6.3L23.9,11.2z"/>
</g>
</svg>
